<?xml version="1.0" standalone="no"?>
<!DOCTYPE svg PUBLIC "-//W3C//DTD SVG 20010904//EN"
 "http://www.w3.org/TR/2001/REC-SVG-20010904/DTD/svg10.dtd">
<svg version="1.0" xmlns="http://www.w3.org/2000/svg"
 width="1280.000000pt" height="1091.000000pt" viewBox="0 0 1280.000000 1091.000000"
 preserveAspectRatio="xMidYMid meet">
<metadata>
Created by potrace 1.15, written by Peter Selinger 2001-2017
</metadata>
<g transform="translate(0.000000,1091.000000) scale(0.100000,-0.100000)"
fill="#000000" stroke="none">
<path d="M9276 10898 c-2 -7 -15 -52 -30 -99 -14 -47 -26 -95 -26 -107 0 -15
19 -36 63 -68 l62 -47 -60 7 c-74 9 -70 5 100 -80 72 -36 133 -69 138 -73 4
-4 -19 -5 -51 -3 -100 7 -101 -1 -5 -37 51 -19 90 -38 88 -41 -2 -4 -49 -13
-105 -20 -55 -7 -100 -16 -100 -19 0 -3 30 -31 65 -61 36 -30 65 -57 65 -60 0
-3 -37 -2 -82 1 -46 3 -84 5 -86 4 -5 -4 124 -63 225 -103 73 -29 90 -39 81
-49 -6 -8 -9 -15 -6 -18 2 -2 40 -8 83 -12 57 -6 80 -12 80 -21 0 -8 -25 -42
-55 -77 l-54 -62 -111 96 c-180 158 -277 232 -427 324 -103 64 -286 150 -383
181 -184 59 -490 118 -680 132 l-90 6 -70 -47 c-142 -97 -170 -117 -150 -110
97 37 218 76 222 71 4 -3 -32 -24 -78 -46 -68 -32 -78 -39 -54 -40 17 0 73 11
125 24 52 14 96 23 98 22 1 -2 -33 -26 -75 -54 -43 -29 -73 -52 -66 -52 7 0
67 23 135 50 67 28 126 49 131 47 9 -3 -113 -107 -200 -171 -29 -21 -53 -39
-53 -40 0 -2 71 21 158 49 209 69 232 74 159 33 -66 -38 -146 -99 -147 -112 0
-5 6 -4 13 2 15 12 114 42 140 42 16 0 13 -7 -21 -44 -81 -87 -73 -91 60 -26
68 32 134 62 148 65 l25 6 -25 -20 c-14 -11 -52 -40 -83 -64 l-58 -45 126 5
c69 3 125 4 125 1 0 -3 -33 -22 -72 -41 -76 -36 -121 -66 -102 -67 6 0 66 11
134 25 68 14 128 25 134 25 6 0 -27 -19 -73 -42 -46 -23 -79 -44 -73 -46 7 -2
66 8 132 22 150 32 157 32 94 -2 -58 -33 -124 -81 -124 -92 0 -4 53 -10 118
-14 185 -10 180 -5 95 -91 -40 -40 -73 -75 -73 -78 0 -3 17 -1 38 4 42 10 242
10 286 0 l29 -6 -39 -17 c-21 -10 -59 -34 -84 -54 -37 -30 -40 -36 -20 -31 80
19 164 28 229 25 l74 -3 -109 -67 c-60 -38 -105 -68 -101 -68 16 0 272 41 292
46 38 12 1 -13 -40 -26 -46 -15 -135 -58 -135 -66 0 -3 4 -2 10 1 5 3 61 10
123 15 63 5 123 12 133 16 18 5 17 4 -1 -10 -41 -31 -193 -171 -194 -178 -1
-4 11 -3 25 2 60 23 314 66 314 53 0 -1 -25 -19 -55 -39 -30 -20 -55 -38 -55
-39 0 -2 41 -4 91 -4 94 -1 139 -8 139 -21 0 -15 -37 -40 -60 -40 -22 0 -22
-1 -6 -19 12 -14 14 -24 7 -43 -8 -21 -19 -26 -85 -36 -71 -11 -83 -10 -198
17 -435 103 -716 135 -1188 136 -233 0 -303 -3 -385 -18 -274 -50 -423 -91
-603 -167 -113 -48 -126 -56 -187 -122 -37 -38 -64 -72 -62 -75 3 -2 23 5 46
16 22 12 42 21 45 21 3 0 -2 -16 -10 -35 -7 -19 -14 -37 -14 -40 0 -9 59 24
135 75 39 26 90 60 115 75 l44 28 -18 -28 c-10 -16 -27 -43 -38 -62 l-20 -33
21 0 c11 0 44 9 72 20 28 12 53 19 55 17 2 -2 -6 -36 -19 -75 -13 -40 -21 -72
-17 -72 4 0 17 12 31 26 25 27 136 104 149 104 4 0 -3 -36 -15 -80 -12 -44
-22 -80 -21 -80 1 0 33 38 71 85 37 47 70 85 71 85 2 0 -7 -30 -21 -66 -32
-84 -31 -94 3 -62 47 43 92 71 92 56 0 -7 -18 -46 -40 -87 -22 -41 -38 -77
-36 -79 2 -2 34 22 72 54 61 52 75 57 36 11 -8 -9 -13 -19 -10 -22 2 -3 40 31
82 75 43 44 80 80 82 80 3 0 0 -9 -6 -20 -10 -18 -41 -162 -36 -167 2 -2 17
18 34 45 18 26 46 63 63 82 28 32 30 33 24 10 -4 -14 -20 -49 -36 -79 -16 -30
-28 -56 -26 -57 3 -4 132 68 181 101 l29 19 -8 -24 c-4 -14 -16 -45 -26 -69
-11 -24 -17 -46 -15 -49 3 -2 30 22 62 54 l56 59 -35 -71 -36 -72 -58 -7 c-93
-11 -203 -34 -269 -57 -60 -20 -61 -21 -70 -67 l-9 -46 -188 -95 c-103 -52
-197 -103 -210 -113 -22 -18 -21 -18 36 -12 31 3 57 1 57 -3 0 -5 -34 -46 -76
-92 -41 -46 -79 -91 -84 -101 -9 -15 -6 -15 32 -2 23 8 59 13 81 11 l39 -3
-46 -56 c-46 -56 -64 -98 -28 -66 17 15 137 67 155 67 12 0 -45 -73 -111 -142
-58 -59 -62 -77 -28 -123 14 -20 15 -20 63 5 26 13 51 26 55 28 4 2 10 -15 14
-37 7 -46 10 -47 97 -30 51 10 59 10 90 -10 19 -11 37 -21 40 -21 3 0 22 27
43 60 20 33 38 59 39 58 2 -2 -1 -25 -5 -53 -5 -30 -4 -51 2 -53 5 -2 2 -14
-6 -27 -15 -23 -14 -24 19 -35 19 -6 35 -15 35 -18 0 -4 -25 -36 -55 -71 -57
-67 -62 -81 -24 -61 27 15 79 30 79 24 0 -3 -38 -61 -84 -130 -46 -68 -82
-124 -79 -124 3 0 28 6 56 14 29 8 65 17 80 21 l29 6 -25 -33 c-14 -18 -41
-68 -61 -111 l-35 -78 64 46 c61 43 165 98 173 91 1 -2 -9 -21 -23 -41 -23
-35 -59 -134 -51 -142 1 -2 54 53 116 122 62 69 114 124 116 122 2 -1 -1 -20
-6 -42 -5 -22 -10 -89 -10 -148 l0 -108 83 102 c45 55 92 112 103 126 l21 25
7 -38 c4 -22 18 -76 32 -122 l25 -83 107 100 c59 55 107 99 108 98 1 -1 0 -24
-3 -50 -5 -44 -9 -50 -47 -69 -22 -11 -78 -43 -123 -71 l-81 -51 28 -57 29
-57 -62 -6 c-77 -9 -147 -26 -147 -36 0 -4 7 -13 16 -21 8 -7 22 -26 31 -43
l16 -30 -51 -46 c-28 -25 -76 -61 -107 -80 l-57 -35 6 -64 6 -64 -61 -79 c-33
-44 -59 -85 -56 -91 3 -7 17 -19 33 -27 16 -8 30 -15 32 -16 7 -4 -38 -82 -64
-113 -14 -18 -23 -35 -20 -39 4 -4 54 -7 110 -8 92 0 108 -3 151 -28 l49 -27
53 53 c29 29 56 60 59 70 7 23 22 23 75 -1 l43 -20 44 26 c38 22 54 25 123 24
l80 -2 127 105 c70 57 184 156 254 220 l126 115 -43 -122 c-87 -247 -142 -499
-226 -1027 -59 -373 -74 -458 -139 -775 -27 -132 -76 -382 -110 -555 -217
-1123 -386 -1822 -565 -2325 -172 -483 -392 -909 -620 -1195 -28 -36 -55 -71
-59 -78 -17 -29 276 -515 297 -492 2 3 19 50 37 105 60 184 151 417 300 765
228 534 346 855 478 1310 207 706 297 1181 563 2960 40 267 74 487 76 489 3 5
123 -30 123 -36 0 -3 -31 -35 -70 -72 -38 -38 -70 -73 -70 -79 0 -15 101 23
222 83 78 39 170 96 308 192 22 15 22 13 -5 -18 -79 -90 -81 -92 -60 -81 35
19 207 160 306 252 l97 89 11 -60 c12 -59 13 -61 39 -55 15 4 58 22 97 41 38
18 71 32 72 31 3 -3 -138 -110 -164 -124 -13 -8 -13 -14 4 -53 11 -24 29 -52
41 -62 20 -18 22 -18 66 2 25 11 46 18 46 17 0 -2 -12 -25 -27 -51 l-26 -48
22 -19 c13 -10 32 -18 42 -18 16 0 17 -4 9 -26 -6 -14 -7 -30 -4 -36 8 -13
104 -58 125 -58 11 0 26 24 45 75 16 41 31 75 34 75 3 0 23 -22 43 -49 27 -35
37 -58 37 -85 0 -20 6 -52 14 -71 l15 -34 78 25 c43 13 87 27 98 30 11 3 30
23 43 44 12 22 31 44 42 50 17 9 20 6 28 -22 5 -18 7 -48 4 -67 l-4 -34 38 31
c45 35 161 154 192 196 24 32 28 25 11 -23 -43 -124 87 113 152 277 77 194
130 388 149 549 7 54 17 101 23 105 13 8 117 11 117 3 0 -2 -14 -26 -30 -52
-29 -46 -70 -142 -70 -166 0 -21 141 126 214 223 161 214 231 420 243 716 l6
152 34 -47 c18 -25 48 -67 65 -93 25 -34 43 -49 73 -58 22 -7 61 -23 86 -37
l46 -25 -5 -89 c-2 -49 -2 -89 2 -89 4 0 30 25 58 55 86 95 83 98 80 -93 -2
-92 -2 -187 0 -212 l3 -44 80 116 c44 64 81 115 83 113 2 -2 -1 -32 -7 -67
-11 -64 -25 -412 -16 -393 2 6 18 66 35 135 l30 125 -5 -130 c-2 -71 -9 -197
-15 -279 l-11 -149 25 -36 c55 -79 211 -248 218 -236 16 27 48 245 54 369 10
202 -24 429 -106 695 -75 244 -144 389 -250 521 -265 333 -681 697 -1032 903
-48 28 -86 52 -85 54 2 1 37 -12 80 -29 76 -32 76 -32 98 -12 12 10 32 40 44
66 l22 47 29 -30 c16 -17 73 -57 126 -89 l98 -59 60 26 60 26 75 -28 c41 -14
78 -24 82 -22 5 3 24 38 43 79 19 40 36 75 37 77 6 9 38 -28 66 -77 35 -63 44
-57 53 35 11 101 -31 244 -89 306 l-27 28 33 19 c30 19 51 24 86 22 20 0 9 75
-19 133 -13 26 -49 76 -81 110 l-59 63 -93 6 c-50 3 -142 9 -203 12 l-112 6
-23 50 c-25 53 -70 104 -102 114 -13 4 -30 -4 -56 -29 -20 -20 -76 -63 -126
-96 l-90 -61 -43 50 c-26 30 -52 50 -64 50 -12 0 -54 -30 -95 -66 -40 -37 -76
-65 -78 -62 -7 6 30 163 74 313 61 212 91 336 91 377 0 35 -2 38 -36 44 -43 8
-27 24 24 24 26 0 32 4 32 23 0 40 -23 177 -30 177 -4 0 -27 -7 -50 -15 -24
-8 -45 -13 -47 -11 -2 2 23 25 56 50 34 26 66 56 72 67 19 37 -13 219 -71 404
-21 66 -43 139 -49 161 l-11 42 -47 -18 -47 -17 -45 32 c-91 65 -103 68 -166
44 -30 -11 -55 -26 -55 -32 0 -7 16 -32 35 -55 58 -73 57 -77 -26 -152 l-73
-67 49 -72 49 -71 -40 -43 c-23 -23 -58 -64 -79 -90 l-38 -48 20 -26 c10 -15
47 -42 82 -61 34 -19 60 -36 58 -38 -2 -2 -28 0 -57 6 -93 18 -108 15 -112
-22 -3 -32 -4 -30 -45 42 -120 219 -393 502 -603 626 -41 24 -78 44 -81 44 -4
0 8 -30 26 -67 57 -117 60 -112 -41 -105 l-87 5 -101 81 c-95 77 -268 200
-364 260 -30 19 -43 23 -46 14z m437 -1069 c-6 -6 -17 -8 -24 -3 -9 5 -8 9 7
14 23 9 31 3 17 -11z m997 -39 c13 -9 13 -11 0 -19 -17 -12 -30 -5 -30 15 0
16 9 18 30 4z m-821 -147 c2 -2 1 -6 -2 -10 -8 -8 -67 46 -67 61 0 5 15 -3 32
-20 18 -16 35 -30 37 -31z m61 -48 c7 -9 10 -19 6 -22 -8 -9 -38 9 -44 25 -5
17 23 15 38 -3z m100 -120 c-12 -14 -16 -13 -42 11 -15 15 -28 31 -28 35 0 18
37 14 59 -7 21 -19 22 -25 11 -39z m56 -16 c3 -6 1 -16 -5 -22 -18 -18 -12
-28 10 -16 18 9 25 7 47 -15 25 -25 26 -27 9 -43 -16 -17 -20 -15 -64 29 -40
40 -45 49 -34 62 16 19 27 20 37 5z m134 -134 c28 -29 32 -38 23 -57 -9 -22
-10 -21 -53 19 -38 35 -42 43 -31 57 18 22 22 21 61 -19z m105 -105 c3 -6 -1
-7 -9 -4 -18 7 -21 14 -7 14 6 0 13 -4 16 -10z m-2021 -342 c-75 -120 -104
-156 -129 -160 -14 -3 -25 -3 -25 -1 0 5 172 203 177 203 2 0 -9 -19 -23 -42z
m281 -10 c-14 -24 -38 -64 -53 -90 -16 -29 -34 -48 -44 -48 -10 0 -18 2 -18 5
0 6 133 175 137 175 2 0 -8 -19 -22 -42z m-214 -25 c-22 -32 -45 -70 -52 -85
-9 -21 -19 -28 -40 -28 -15 0 -36 -3 -46 -6 -10 -3 25 35 77 85 52 50 96 90
98 91 1 0 -15 -26 -37 -57z m219 -108 c0 -8 -7 -15 -15 -15 -26 0 -18 20 13
29 1 1 2 -6 2 -14z m-450 -55 c0 -5 -9 -10 -21 -10 -11 0 -17 5 -14 10 3 6 13
10 21 10 8 0 14 -4 14 -10z m1690 -149 c-11 -21 -30 -37 -30 -25 0 8 30 44 37
44 2 0 -1 -9 -7 -19z m890 -771 c10 -197 10 -315 1 -519 -11 -261 -21 -350
-21 -195 0 43 -5 153 -11 244 -15 215 -17 799 -4 803 15 6 22 -56 35 -333z
m416 270 c-13 -14 -30 -35 -38 -48 l-16 -23 -30 49 -30 48 69 0 68 -1 -23 -25z
m-172 -207 c-21 -15 -29 -9 -38 30 l-7 29 32 -23 c30 -21 31 -23 13 -36z
m-775 -44 c-27 -17 -41 -9 -18 10 14 11 26 15 28 9 2 -6 -3 -14 -10 -19z m242
-1 c-5 -14 -16 -28 -25 -31 -12 -5 -10 2 7 28 25 38 32 39 18 3z m874 -155
c-62 -96 -62 -96 -69 -71 -9 35 -7 48 7 48 6 0 26 11 42 25 39 31 41 31 20 -2z
m-1305 -24 c0 -39 -1 -41 -56 -66 -30 -14 -57 -23 -59 -21 -4 4 103 128 111
128 2 0 4 -18 4 -41z m215 -138 c18 -7 16 -10 -15 -26 -19 -10 -71 -42 -115
-72 l-80 -55 80 81 c79 80 91 87 130 72z m-1494 -129 c-23 -46 -37 -62 -62
-71 -75 -26 -74 -14 2 67 41 44 78 76 82 72 5 -4 -5 -35 -22 -68z m2679 -20
c-19 -15 -45 -37 -56 -50 -19 -19 -23 -20 -28 -6 -15 39 -7 53 37 64 23 6 47
13 52 15 28 10 26 2 -5 -23z m-1616 -59 c-36 -61 -77 -160 -72 -175 2 -6 52
30 112 79 59 48 118 96 131 107 21 17 28 17 76 6 29 -7 89 -16 134 -19 l80 -6
-58 -34 c-32 -18 -84 -57 -115 -87 l-57 -53 75 19 c41 11 76 17 78 15 2 -2
-11 -31 -29 -65 -27 -51 -51 -77 -138 -146 -58 -47 -144 -111 -191 -143 -98
-68 -192 -163 -308 -312 -44 -57 -101 -121 -126 -142 -40 -33 -45 -42 -39 -65
3 -15 12 -31 19 -37 12 -9 39 -94 32 -99 -2 -2 -23 -16 -48 -33 -25 -17 -69
-52 -98 -78 -28 -26 -52 -41 -52 -33 0 19 46 189 77 283 39 120 116 318 182
468 49 111 276 574 287 586 3 3 55 17 76 20 3 1 -9 -25 -28 -56z m1586 -177
c0 -3 -4 -8 -10 -11 -5 -3 -10 -1 -10 4 0 6 5 11 10 11 6 0 10 -2 10 -4z m10
-156 c0 -5 -4 -10 -10 -10 -5 0 -10 5 -10 10 0 6 5 10 10 10 6 0 10 -4 10 -10z
m75 -108 c-11 -10 -35 -34 -52 -55 l-33 -38 0 43 c0 42 1 43 48 58 54 18 65
15 37 -8z m4 -144 c-2 -2 -24 -21 -47 -43 l-44 -40 4 29 c2 23 10 32 38 42 31
11 60 18 49 12z m-737 -222 c16 -12 17 -17 3 -70 -16 -63 -28 -88 -56 -125
-26 -32 -24 -65 7 -122 l27 -48 -57 -63 c-31 -35 -56 -66 -56 -70 0 -3 26 -20
59 -36 l58 -29 -56 -26 c-31 -14 -84 -48 -118 -76 l-62 -50 25 65 c39 105 151
483 171 577 9 48 22 87 28 87 5 0 18 -7 27 -14z m-532 -265 c0 -9 -66 -71 -76
-71 -3 0 10 18 27 40 31 39 49 50 49 31z m-961 -402 l52 -42 -47 -33 c-47 -34
-82 -50 -90 -41 -7 7 18 157 26 157 4 0 31 -19 59 -41z"/>
<path d="M2486 10830 c-25 -38 -29 -40 -79 -41 -108 -1 -127 -9 -159 -66 -16
-29 -27 -57 -24 -62 4 -5 27 -13 52 -17 25 -3 57 -16 70 -28 l24 -21 -15 -90
c-8 -49 -15 -93 -15 -96 0 -3 36 -16 79 -28 l79 -23 -6 -120 c-4 -96 -2 -122
9 -129 19 -12 94 -11 148 2 49 11 67 5 29 -10 -14 -5 -48 -24 -77 -41 -51 -31
-51 -33 -36 -56 8 -13 15 -25 15 -28 0 -2 -37 12 -82 31 -96 40 -249 83 -393
109 -77 15 -148 19 -305 19 -113 0 -218 -4 -235 -8 l-30 -9 45 -17 c25 -10 67
-31 94 -48 l49 -31 -39 -20 c-21 -11 -54 -32 -73 -46 l-35 -26 -240 -1 c-223
0 -368 -8 -380 -20 -3 -3 5 -32 18 -64 13 -33 31 -81 40 -107 l18 -48 86 0 87
0 -49 -28 c-49 -27 -49 -27 -20 -30 17 -2 83 9 148 23 159 34 170 33 105 -11
-87 -59 -88 -65 -8 -40 143 44 140 46 60 -40 -50 -55 -67 -80 -59 -86 7 -4 46
-8 86 -8 39 0 72 -4 72 -9 0 -5 -30 -27 -66 -50 -37 -23 -65 -44 -62 -46 5 -5
230 49 286 69 40 14 42 14 42 -4 0 -28 8 -25 76 18 32 21 65 41 72 46 10 6 12
-14 11 -94 l-1 -102 -28 6 c-16 3 -107 11 -203 17 -316 22 -635 -13 -878 -96
-129 -44 -473 -214 -594 -292 -56 -37 -95 -70 -103 -87 -15 -34 -81 -236 -77
-236 2 0 13 17 26 38 39 65 111 164 116 159 2 -3 -13 -38 -34 -78 -21 -41 -40
-78 -42 -84 -8 -21 44 33 107 110 36 44 63 73 60 65 -30 -87 -49 -152 -45
-156 2 -2 36 50 76 116 40 66 74 120 77 120 11 0 -9 -86 -72 -315 -3 -11 34
39 84 112 79 117 153 216 141 188 -3 -5 -15 -32 -27 -58 -19 -42 -52 -151 -52
-173 0 -4 13 12 29 37 15 24 41 56 57 71 l29 27 -3 -77 -3 -77 63 117 c94 173
101 181 72 73 -32 -120 -31 -126 14 -83 41 39 157 125 150 112 -36 -74 -67
-144 -72 -164 -8 -28 3 -17 132 125 55 60 61 64 42 30 -12 -22 -31 -62 -41
-90 l-20 -50 43 45 c24 25 69 75 100 110 l57 65 -29 -70 c-15 -38 -32 -88 -36
-110 l-7 -39 39 31 c44 34 206 134 211 129 3 -3 -14 -141 -24 -191 -5 -28 -3
-27 43 24 27 30 89 81 139 113 91 59 121 72 92 41 -15 -17 -57 -130 -57 -154
0 -7 26 17 59 52 32 35 86 86 121 113 71 56 71 62 10 -96 -21 -54 -37 -98 -35
-98 1 0 50 48 109 108 79 79 101 96 83 67 -13 -22 -37 -65 -52 -94 l-27 -54
101 93 c55 51 103 98 106 104 3 6 3 0 0 -14 -3 -14 -12 -54 -19 -90 -8 -36
-17 -90 -21 -120 l-8 -55 38 50 c44 59 139 158 178 187 l27 20 -23 -65 -23
-64 93 64 c51 35 98 63 103 63 14 0 1 -51 -18 -72 -14 -16 -13 -18 6 -18 15 0
22 -8 27 -31 7 -29 2 -37 -47 -86 -45 -45 -78 -65 -213 -127 -392 -179 -645
-331 -1007 -603 -259 -195 -492 -458 -651 -734 -58 -102 -77 -166 -77 -257 l1
-57 26 50 27 50 10 -37 c6 -20 14 -39 17 -42 3 -3 25 49 49 117 24 67 51 140
61 162 l17 40 1 -60 c2 -95 13 -99 62 -22 l43 67 22 -57 c12 -32 25 -67 29
-78 6 -16 10 -11 16 24 11 55 48 169 58 175 4 3 20 -30 36 -72 l30 -77 5 115
c5 122 8 123 39 20 10 -36 21 -58 24 -50 2 8 12 42 22 75 16 56 18 58 27 35 6
-14 16 -59 22 -100 l13 -75 16 54 c10 30 17 67 17 83 0 39 18 35 22 -4 2 -18
9 18 17 80 l14 113 43 -88 42 -88 1 100 c1 113 13 113 32 0 l12 -70 29 60 c15
33 36 84 45 113 9 28 19 52 23 52 3 0 15 -32 25 -72 21 -82 33 -73 34 25 1 31
5 57 9 57 5 0 14 -32 21 -70 l13 -71 -89 -92 c-49 -51 -108 -120 -132 -155
-38 -57 -41 -65 -28 -80 36 -41 32 -57 -62 -250 -49 -103 -93 -200 -97 -217
-7 -30 -7 -30 40 15 l47 45 -7 -140 -6 -140 20 29 c21 30 71 75 85 76 4 0 7
-34 7 -75 0 -73 12 -99 24 -51 8 33 69 136 80 136 9 0 2 -169 -10 -227 -5 -26
-2 -34 17 -46 54 -34 64 -31 89 23 13 27 29 50 35 50 6 0 22 -11 34 -24 l23
-25 50 54 c41 45 56 55 94 61 l46 7 -7 71 -6 71 26 -40 c13 -22 25 -43 25 -47
0 -4 6 -5 14 -2 11 4 13 0 9 -14 -6 -26 8 -33 46 -22 l31 9 0 -92 c0 -82 2
-89 13 -67 23 42 42 70 48 70 4 0 10 -67 14 -150 4 -82 10 -150 14 -149 3 0
25 27 49 60 44 60 64 75 55 40 -5 -20 23 -175 35 -198 4 -7 22 30 40 85 18 53
41 108 52 122 l18 24 7 -55 c8 -64 40 -142 48 -119 3 8 11 85 19 170 l13 155
38 -70 c22 -38 60 -96 85 -128 l47 -60 6 159 c4 88 7 161 8 163 0 3 13 -7 29
-21 34 -32 152 -118 161 -118 4 0 18 63 31 140 13 77 24 140 26 140 2 0 14
-19 28 -42 23 -38 24 -44 10 -70 -11 -22 -94 -227 -94 -233 0 -1 26 -14 58
-29 l57 -27 -72 -74 c-76 -77 -86 -95 -53 -95 11 0 36 -7 56 -15 33 -14 34
-15 28 -57 -4 -24 -20 -83 -36 -131 -32 -98 -32 -99 30 -150 20 -17 22 -27 22
-129 l0 -110 45 4 c45 3 46 3 56 -36 6 -22 9 -59 7 -83 -2 -24 0 -43 5 -43 19
0 87 42 113 70 28 30 104 60 150 60 19 0 24 8 34 57 7 31 10 75 6 98 l-5 42
55 12 c53 12 56 14 78 65 19 42 34 59 84 91 l60 39 31 131 c41 173 69 308 90
434 l17 103 29 -93 c75 -242 223 -565 455 -994 170 -314 236 -443 363 -710 69
-143 207 -426 307 -630 638 -1296 922 -2017 1049 -2665 47 -238 70 -468 71
-683 l0 -148 118 -56 c91 -43 390 -153 416 -153 3 0 -12 51 -34 113 -68 197
-128 411 -220 779 -137 545 -225 836 -381 1256 -261 700 -475 1136 -1323 2692
-137 250 -259 474 -272 497 l-24 42 57 17 c32 9 63 19 69 21 8 3 7 -12 -2 -49
-8 -29 -14 -77 -14 -108 l0 -55 20 25 c64 83 166 302 216 465 l25 80 -5 -80
c-3 -48 -2 -74 3 -65 16 26 80 295 98 409 l17 109 48 -41 c57 -48 55 -50 118
78 22 44 40 76 40 71 0 -5 -14 -56 -30 -113 -17 -57 -27 -109 -24 -115 8 -13
84 -47 106 -48 10 0 29 20 45 47 15 27 29 41 30 33 1 -8 5 -36 8 -62 4 -30 10
-46 18 -43 54 16 74 13 85 -11 13 -27 42 -31 102 -14 63 18 63 18 41 106 -11
43 -19 79 -17 81 1 1 29 -5 62 -14 40 -12 67 -27 83 -46 14 -17 38 -38 55 -48
l29 -18 59 82 c51 71 59 88 57 122 -3 66 0 85 15 85 16 0 76 -65 76 -83 0 -7
4 -6 10 3 15 26 40 181 43 262 2 77 10 92 22 38 11 -48 26 -47 20 2 -41 295
-173 680 -299 867 l-37 54 25 26 c14 14 38 34 54 43 l29 18 6 -68 c7 -83 35
-181 47 -162 37 60 38 431 1 576 -40 159 -159 393 -264 518 -29 35 -35 47 -22
42 11 -4 54 -17 95 -28 41 -11 82 -24 92 -29 10 -6 29 -3 52 6 20 9 63 19 96
23 l60 9 29 -51 c16 -28 40 -61 53 -74 l25 -23 6 80 c8 116 16 125 57 60 30
-49 173 -242 207 -279 11 -12 12 9 7 135 l-5 150 33 -60 c56 -100 211 -325
223 -325 5 0 -16 50 -66 158 -21 47 -38 87 -35 89 3 4 67 -90 191 -282 122
-189 123 -190 212 -213 97 -26 262 -56 269 -49 9 9 -110 230 -176 328 -189
279 -666 649 -950 737 -82 25 -276 67 -400 87 -321 50 -682 61 -1050 31 l-75
-6 72 21 c70 20 73 22 79 57 5 23 2 52 -7 77 l-15 40 91 0 c49 0 120 4 157 8
l67 9 32 57 32 58 79 23 c43 12 78 28 78 34 -1 6 -7 40 -15 76 -25 114 -24
115 73 75 34 -14 64 -25 67 -25 18 0 -67 129 -112 170 -57 53 -146 100 -187
100 -17 0 -26 6 -26 15 0 23 24 67 49 89 l21 19 -27 30 c-42 44 -113 75 -209
92 -84 15 -88 14 -108 -4 -12 -11 -72 -49 -134 -86 -63 -37 -128 -79 -145 -95
l-31 -27 -60 28 c-65 31 -154 40 -160 17 -2 -7 -8 -38 -14 -68 -6 -30 -25 -95
-42 -144 l-33 -88 -33 6 c-19 3 -49 9 -67 12 -48 9 -60 -9 -81 -120 -10 -53
-20 -96 -22 -96 -9 0 -62 118 -143 323 -83 210 -131 316 -153 344 -8 10 -17 9
-44 -2 -42 -17 -43 -8 -4 30 l30 29 -67 68 c-37 37 -70 68 -74 68 -3 0 -19
-18 -33 -41 -15 -22 -29 -39 -32 -37 -2 3 5 37 16 76 11 39 20 78 20 87 0 24
-126 150 -224 223 -158 118 -245 182 -249 182 -3 0 -16 -18 -31 -40z m294
-947 c0 -5 -4 -14 -9 -22 -8 -13 -12 -13 -26 -1 -16 13 -16 15 2 21 24 10 33
10 33 2z m-830 -574 c0 -5 -10 -9 -21 -9 -18 0 -19 2 -9 15 12 15 30 12 30 -6z
m235 -39 c29 -7 28 -8 -10 -8 -22 0 -49 3 -60 8 -17 7 -15 9 10 8 17 0 44 -4
60 -8z m105 -16 c0 -12 -6 -15 -22 -10 -13 3 -27 6 -31 6 -5 0 -5 5 -2 10 10
17 55 12 55 -6z m140 -14 c0 -15 -7 -20 -27 -20 -16 0 -34 4 -42 9 -22 14 -3
31 35 31 27 0 34 -4 34 -20z m60 -5 c0 -18 -5 -25 -20 -25 -23 0 -24 4 -10 31
15 27 30 24 30 -6z m84 9 c9 -3 16 -17 16 -31 0 -19 -4 -24 -16 -19 -9 3 -27
6 -40 6 -19 0 -24 5 -24 25 0 20 5 25 24 25 13 0 31 -3 40 -6z m142 -18 c1 0
5 -11 8 -23 7 -22 4 -23 -38 -23 -56 0 -76 8 -76 29 0 28 11 32 59 25 26 -4
47 -7 47 -8z m111 -22 c-3 -3 -12 -4 -19 -1 -8 3 -5 6 6 6 11 1 17 -2 13 -5z
m1355 -477 c-4 -64 -2 -63 -80 -30 l-35 15 39 17 c21 10 48 28 58 40 11 11 20
20 21 19 0 -2 -1 -29 -3 -61z m387 -264 c1 -36 -5 -39 -32 -19 -17 13 -17 16
-3 45 9 16 17 38 17 48 2 26 16 -36 18 -74z m-555 -173 c126 -153 254 -323
373 -495 131 -191 134 -197 22 -60 -40 50 -138 167 -219 260 -80 94 -170 206
-199 250 -30 44 -90 124 -133 177 -50 61 -77 102 -72 110 9 14 71 -53 228
-242z m166 214 c0 -3 -5 -14 -10 -25 -10 -19 -12 -19 -35 -2 -34 25 -31 33 10
33 19 0 35 -3 35 -6z m-1343 -171 c-3 -10 -5 -2 -5 17 0 19 2 27 5 18 2 -10 2
-26 0 -35z m1987 -5 c-8 -29 -14 -60 -14 -70 0 -17 -2 -17 -25 -2 -14 9 -25
21 -25 26 0 7 70 98 76 98 0 0 -5 -23 -12 -52z m-1052 -240 c-9 -9 -12 -1 -11
33 l1 44 11 -33 c7 -24 7 -36 -1 -44z m1170 30 c-7 -7 -12 -8 -12 -2 0 14 12
26 19 19 2 -3 -1 -11 -7 -17z m108 -108 c0 -5 -4 -10 -10 -10 -5 0 -10 5 -10
10 0 6 5 10 10 10 6 0 10 -4 10 -10z m-1484 -49 c-15 -15 -16 -13 -4 19 9 26
13 30 16 16 2 -10 -3 -26 -12 -35z m1602 -27 c-4 -37 -9 -68 -11 -70 -2 -2
-13 10 -25 26 l-22 29 27 40 c16 22 31 40 34 41 3 0 2 -30 -3 -66z m-3513
-142 c6 -67 4 -80 -9 -85 -14 -6 -16 7 -15 106 1 123 12 114 24 -21z m3605 52
c-6 -14 -10 -41 -10 -60 0 -39 -9 -43 -28 -14 -10 17 -8 26 14 60 31 46 37 50
24 14z m-3787 -271 c-15 -12 -28 -21 -30 -19 -1 1 4 38 12 82 7 43 17 102 21
129 7 46 8 42 16 -60 l8 -110 -27 -22z m257 198 c0 -6 -4 -13 -10 -16 -5 -3
-10 1 -10 9 0 9 5 16 10 16 6 0 10 -4 10 -9z m-309 -128 c8 -102 7 -109 -13
-128 l-20 -20 6 79 c3 43 6 104 6 134 0 88 11 53 21 -65z m2114 -3 c-16 -33
-31 -60 -35 -60 -3 0 -3 33 1 73 4 39 8 79 8 87 1 10 9 6 28 -12 l27 -27 -29
-61z m259 68 c-10 -18 -30 -73 -45 -123 -33 -107 -34 -103 -13 37 16 100 18
108 43 116 14 5 27 8 29 7 2 -2 -4 -18 -14 -37z m156 -122 c0 -2 -13 -32 -29
-67 -26 -60 -58 -186 -48 -195 2 -2 26 24 53 58 l49 63 11 -75 c11 -71 10 -82
-23 -215 -19 -77 -50 -186 -69 -242 -32 -97 -35 -113 -44 -310 -6 -115 -15
-241 -20 -282 -9 -66 -8 -75 7 -87 10 -7 25 -14 33 -14 27 0 92 -61 85 -79 -4
-9 -19 -65 -34 -125 l-28 -109 -50 124 c-107 260 -199 593 -273 988 -55 297
-56 300 -27 334 l24 29 7 -62 c8 -68 43 -190 54 -190 7 0 47 150 73 277 10 51
11 52 82 86 40 19 90 48 112 65 37 28 55 38 55 28z m-2545 -136 c-3 -5 -10
-10 -16 -10 -5 0 -9 5 -9 10 0 6 7 10 16 10 8 0 12 -4 9 -10z m3455 -266 c11
-31 23 -83 27 -116 5 -51 10 -63 37 -83 17 -13 44 -27 59 -31 l29 -7 -4 -89
-3 -90 55 5 c30 2 64 8 75 12 19 8 19 7 4 -11 -30 -35 -59 -103 -77 -180 l-18
-76 -18 63 c-25 90 -171 480 -216 577 l-39 82 34 0 c32 0 35 -3 55 -56z
m-2175 -459 c5 -46 3 -60 -14 -83 -42 -59 -48 -57 -38 16 4 37 11 87 14 112 4
39 6 43 18 27 7 -10 16 -42 20 -72z m1863 -58 c-13 -59 -18 -58 -18 1 0 40 3
50 14 46 11 -4 12 -14 4 -47z m-463 -884 c-10 -40 -46 -123 -54 -123 -6 0 -81
133 -81 144 0 3 32 6 71 6 l71 0 -7 -27z"/>
</g>
</svg>
